<svg width="580" height="400" xmlns="http://www.w3.org/2000/svg">
 <!-- Created with Method Draw - http://github.com/duopixel/Method-Draw/ -->
 <g>
  <title>background</title>
  <rect fill="#fff" id="canvas_background" height="402" width="582" y="-1" x="-1"/>
  <g display="none" overflow="visible" y="0" x="0" height="100%" width="100%" id="canvasGrid">
   <rect fill="url(#gridpattern)" stroke-width="0" y="0" x="0" height="100%" width="100%"/>
  </g>
 </g>
 <g>
  <title>Layer 1</title>
  <path d="m76.250015,89.750015c1,0 7,0 14,0c18,0 37,0 73,0c22,0 50.970398,-1.749741 79.499985,-2.5c27.490509,-0.722931 52.5,0 77.5,0c22.5,0 33.5,0 39.5,0c3,0 3.5,0 4,0c0.5,0 1.038055,-0.191345 1.5,0c0.65329,0.270599 1,1.5 1,2c0,3.5 -0.747223,11.579193 1,24.5c2.457275,18.171738 7.94046,37.459839 9.5,57c1.394562,17.472992 0.637878,34.032928 2,46.999985c0.790466,7.524963 2.249695,16.481308 2.5,21.5c0.09964,1.997513 0,3.5 0,4c0,0.5 -0.001923,1.437866 -1,1.5c-4.023346,0.250488 -11.992798,1.749954 -25,2c-15.99704,0.307526 -34,0 -53.5,0c-21,0 -35.482635,-1.725327 -47,-2.5c-10.488205,-0.70546 -21,-1.5 -29,-1.5c-11.5,0 -25.975037,-0.499725 -40.999985,-1c-11.993347,-0.399338 -23.607483,-1.010147 -33,0.5c-5.628586,0.904968 -12.964935,4.173431 -17.5,5c-3.478241,0.633957 -5.973358,1.249374 -9.5,1.5c-5.48616,0.389893 -9.925797,0.497559 -15,1c-4.478104,0.44342 -5.5,0 -6.5,0c-0.5,0 -0.615868,0.036163 -1.5,-3c-1.152771,-3.958679 -3.814644,-10.04863 -6,-18c-1.383408,-5.033508 -3.026352,-10.493591 -3.5,-12.5c-1.059105,-4.48645 -2.745415,-9.457123 -3.5,-14.5c-0.743622,-4.969589 -1.403084,-10.515198 -2,-13.999985c-0.430443,-2.512909 -0.846275,-4.093002 -1.5,-5c-0.413452,-0.573639 -1.229401,-0.846725 -1.5,-1.5c-0.191345,-0.461945 0.494064,-0.530136 5.5,-1.5c7.990822,-1.548157 22.46962,-3.682938 40,-6.5c19.967575,-3.20871 46.404755,-7.538376 73.499985,-9.5c29.439896,-2.131378 56.469452,-2.200363 75.5,-5c10.983582,-1.615829 20.5,-3.5 26,-4.5l3.5,-0.5l1,-0.5l0.5,0" id="svg_1" stroke-width="1.5" stroke="#000" fill="none"/>
  <path d="m66.750015,44.250019c-0.5,0 -3.459503,3.779526 -9.999996,18c-12.921509,28.094204 -18.279343,47.701878 -23.5,72.999996c-3.987452,19.322266 -5.667984,48.188248 -3,66.999985c2.777519,19.584061 11.786198,38.0896 23.5,49c12.889072,12.005066 38.749744,21.697876 62.999996,30c28.727585,9.834961 52.306168,16.171356 83.999985,19c41.362686,3.691559 75.383514,2.583557 96.5,-5.5c26.550812,-10.163849 42.263,-20.488861 54.5,-32c11.890656,-11.185349 20.278564,-27.891129 27,-45.5c6.261047,-16.402725 8.499451,-30.964355 9,-41.499985c0.450836,-9.489288 -0.691986,-18.973831 -12,-31c-10.965668,-11.662079 -25.439087,-21.467827 -39.5,-26c-11.666595,-3.760422 -25.015106,-7.584328 -39.5,-0.5c-18.420929,9.009384 -23.961945,25.024139 -30,34.5c-4.471893,7.01799 -5.5,11 -5.5,15.5l0,8" id="svg_3" stroke-width="1.5" stroke="#000" fill="none"/>
 </g>
</svg>