<svg width="580" height="400" xmlns="http://www.w3.org/2000/svg">
 <!-- Created with Method Draw - http://github.com/duopixel/Method-Draw/ -->
 <g>
  <title>background</title>
  <rect fill="#fff" id="canvas_background" height="402" width="582" y="-1" x="-1"/>
  <g display="none" overflow="visible" y="0" x="0" height="100%" width="100%" id="canvasGrid">
   <rect fill="url(#gridpattern)" stroke-width="0" y="0" x="0" height="100%" width="100%"/>
  </g>
 </g>
 <g>
  <title>Layer 1</title>
  <path d="m34.5,66.5c0,1 0,7 0,15c0,19 0,41 0,57c0,12 1.062786,30.086258 3,46c1.351032,11.098404 2.694462,22.082642 5,30c1.768269,6.072327 3.428242,11.423355 8,17c4.482979,5.468353 9.877445,11.150848 16,16c7.011528,5.553238 16.753052,7.583435 28,12c8.830383,3.467621 18.034431,5.867004 26,8c7.032349,1.883118 14.962601,3.49939 25,4c7.990067,0.398499 21.013779,0.497711 30,0c9.041534,-0.500763 20.299438,-6.510223 32,-14c10.280655,-6.580887 18.470245,-13.31076 29,-21c12.615036,-9.21199 20.114075,-20.921112 27,-31c6.101868,-8.931244 11.259308,-18.464005 15,-29c3.084656,-8.688202 4,-17 4,-23c0,-7 0.128632,-13.099792 -3,-17c-5.768921,-7.191635 -9.123291,-11.457527 -15,-14c-6.489746,-2.807686 -13,-1 -18,-1c-5,0 -9.613831,-0.703003 -12,2c-4.439514,5.028992 -7.964859,12.734024 -10,22c-1.942596,8.844559 -2.499832,19.98027 -3,39c-0.420609,15.994476 -1.634583,32.421906 3,47c2.983932,9.385956 12,21 18,27c9,9 16.382782,13.119812 31,20c11.336884,5.336182 25.795135,10.75824 43,15c9.90155,2.441162 25,5 40,5c16,0 35.211884,1.856354 52,-1c14.353943,-2.4422 27.362946,-8.265076 34,-12c14.993622,-8.4375 21.779846,-15.132233 33,-26c8.649445,-8.377792 17.851227,-20.282486 27,-32c4.437805,-5.683823 10.733276,-16.232742 16,-22c2.860962,-3.132858 5.418884,-6.418854 7,-8c1.581116,-1.581146 3.82373,-2.486252 6,-3c3.893005,-0.919006 9.761475,-0.955582 15,4c7.264526,6.872147 13.098511,17.588226 16,27c3.293762,10.684158 4.499207,20.958466 5,30c0.497681,8.986237 0,17 0,25c0,7 1.248962,13.112335 0,20c-1.524475,8.406891 -7.068054,13.919464 -13,19c-4.42865,3.79303 -8,4 -11,6l-3,2" id="svg_5" fill-opacity="null" stroke-opacity="null" stroke-width="1.5" stroke="#000" fill="none"/>
 </g>
</svg>